/* XPM */
static char * collectable_xpm[] = {
"64 64 502 2",
"  	c #FFFFFF",
". 	c #FEFDFC",
"+ 	c #FDF9F9",
"@ 	c #FCF5F5",
"# 	c #FBF3F2",
"$ 	c #FAF2F1",
"% 	c #F9F2F1",
"& 	c #FBF4F3",
"* 	c #FEFDFD",
"= 	c #FAF1F0",
"- 	c #F4D8D6",
"; 	c #F0BAB9",
"> 	c #ECA7A5",
", 	c #E7A4A2",
"' 	c #E6A3A1",
") 	c #E6A3A2",
"! 	c #E6A4A2",
"~ 	c #E9A4A3",
"{ 	c #EFB3B1",
"] 	c #F6DBDA",
"^ 	c #FCF4F3",
"/ 	c #FBFBFB",
"( 	c #F4F4F4",
"_ 	c #EBEBEB",
": 	c #EAEAEA",
"< 	c #F3F3F3",
"[ 	c #FEFFFF",
"} 	c #FCFCFC",
"| 	c #F4DEDD",
"1 	c #EAA8A6",
"2 	c #E47572",
"3 	c #E25F5C",
"4 	c #E27270",
"5 	c #E27976",
"6 	c #E17B77",
"7 	c #E17B78",
"8 	c #E17976",
"9 	c #DE6360",
"0 	c #DA4944",
"a 	c #D9423D",
"b 	c #DC3E3A",
"c 	c #E36E6B",
"d 	c #F0C1BE",
"e 	c #FAEBE9",
"f 	c #FEFCFB",
"g 	c #FEFEFE",
"h 	c #F5F4F4",
"i 	c #E1E0E0",
"j 	c #BFBFBF",
"k 	c #B9B9B9",
"l 	c #D4D4D4",
"m 	c #EAECEB",
"n 	c #F8FAF9",
"o 	c #FBFCFC",
"p 	c #FDFDFD",
"q 	c #FFFFFE",
"r 	c #F7F4F4",
"s 	c #EDC3C3",
"t 	c #E26C6B",
"u 	c #DF5854",
"v 	c #E4807E",
"w 	c #EEAAA9",
"x 	c #F0B6B5",
"y 	c #EFB8B6",
"z 	c #EEB8B6",
"A 	c #EFB9B7",
"B 	c #EDB4B2",
"C 	c #E48987",
"D 	c #DA4B46",
"E 	c #D7332E",
"F 	c #D6201A",
"G 	c #DB5C59",
"H 	c #ECB7B3",
"I 	c #F8E5E3",
"J 	c #FEFBFA",
"K 	c #FDFDFC",
"L 	c #F6F3F1",
"M 	c #E4DCDA",
"N 	c #B3AFAE",
"O 	c #8E8E8E",
"P 	c #929292",
"Q 	c #A8A9A9",
"R 	c #C2C3C3",
"S 	c #DADADA",
"T 	c #EFEFEE",
"U 	c #FDFDFB",
"V 	c #FDF7F7",
"W 	c #F5DCDC",
"X 	c #E8A2A2",
"Y 	c #DC5856",
"Z 	c #E38D89",
"` 	c #EFBFBD",
" .	c #F8DDDD",
"..	c #FAE6E5",
"+.	c #F9E6E5",
"@.	c #F9E7E5",
"#.	c #F5DFDC",
"$.	c #E6A3A0",
"%.	c #D8403B",
"&.	c #D62721",
"*.	c #D51106",
"=.	c #DA5753",
"-.	c #EBB4B0",
";.	c #F8E4E2",
">.	c #FEFDFB",
",.	c #FAF6EE",
"'.	c #F8ECDF",
").	c #EEDBD0",
"!.	c #C9C1BC",
"~.	c #9F9FA0",
"{.	c #7A7A7A",
"].	c #646464",
"^.	c #767676",
"/.	c #A3A3A3",
"(.	c #C9CAC8",
"_.	c #E4E5E2",
":.	c #F2F3F2",
"<.	c #FAFAFA",
"[.	c #FAEFEE",
"}.	c #EFBBBB",
"|.	c #E27E7E",
"1.	c #DC6C6B",
"2.	c #ECBDBA",
"3.	c #F9E9E7",
"4.	c #FFFEFE",
"5.	c #FDFCFA",
"6.	c #F7EDE9",
"7.	c #E5A8A5",
"8.	c #D6332F",
"9.	c #D6211B",
"0.	c #D5150C",
"a.	c #DA5754",
"b.	c #EBB4B1",
"c.	c #FDF9F2",
"d.	c #F8E5C9",
"e.	c #F5D6AD",
"f.	c #F4D3B3",
"g.	c #F0E4DB",
"h.	c #E4E4E4",
"i.	c #CBCBCB",
"j.	c #999999",
"k.	c #616161",
"l.	c #606060",
"m.	c #757574",
"n.	c #999998",
"o.	c #C9C9C9",
"p.	c #E9E9E9",
"q.	c #F1E1E1",
"r.	c #E09493",
"s.	c #DB5F5F",
"t.	c #E3898A",
"u.	c #F3D8D7",
"v.	c #FDFBFA",
"w.	c #F1D3D1",
"x.	c #E2928F",
"y.	c #D62F2B",
"z.	c #D6221D",
"A.	c #FBF3E9",
"B.	c #F5D2A2",
"C.	c #F2BC6E",
"D.	c #F3C38B",
"E.	c #F9EBDB",
"F.	c #F9FBF9",
"G.	c #EFEFEF",
"H.	c #D2D2D2",
"I.	c #A8A8A8",
"J.	c #747474",
"K.	c #454545",
"L.	c #4E4E4E",
"M.	c #8C8C8C",
"N.	c #B7B7B7",
"O.	c #D6D6D6",
"P.	c #EEEEEE",
"Q.	c #F9EEEE",
"R.	c #EDC7C7",
"S.	c #DB7472",
"T.	c #DD6565",
"U.	c #EBA6A7",
"V.	c #F5E4E4",
"W.	c #FAFEFD",
"X.	c #FBFDFD",
"Y.	c #F5E8E7",
"Z.	c #E9B5B2",
"`.	c #DE7673",
" +	c #D62D28",
".+	c #D6241F",
"++	c #FDFEFD",
"@+	c #F8EFE1",
"#+	c #F2C585",
"$+	c #EFA911",
"%+	c #EFB364",
"&+	c #F3E3CD",
"*+	c #F8FCF7",
"=+	c #FCFCFB",
"-+	c #F7F7F7",
";+	c #E3E3E3",
">+	c #B4B4B4",
",+	c #7F8080",
"'+	c #4B4B4B",
")+	c #393939",
"!+	c #5F5F5F",
"~+	c #939393",
"{+	c #CACACA",
"]+	c #F9F9F9",
"^+	c #FDFCFB",
"/+	c #FBF4F4",
"(+	c #F5D3D3",
"_+	c #EA9F9F",
":+	c #DB5D5B",
"<+	c #E07170",
"[+	c #EDACAC",
"}+	c #F0D7D6",
"|+	c #F1E8E8",
"1+	c #ECCFCE",
"2+	c #E1918D",
"3+	c #DA5954",
"4+	c #D62A25",
"5+	c #D62520",
"6+	c #FCFEFC",
"7+	c #F8EFE0",
"8+	c #F1C685",
"9+	c #EEAC00",
"0+	c #F0B660",
"a+	c #F5E4CF",
"b+	c #FAFDF9",
"c+	c #FEFFFE",
"d+	c #F8F8F8",
"e+	c #E8E9E8",
"f+	c #C3C5C4",
"g+	c #4A4A4A",
"h+	c #1F1F1F",
"i+	c #545454",
"j+	c #868686",
"k+	c #A6A6A6",
"l+	c #B8B8B8",
"m+	c #D7D7D7",
"n+	c #F2F1F1",
"o+	c #F8F5F2",
"p+	c #F5E8E5",
"q+	c #EDCACC",
"r+	c #E39FA0",
"s+	c #DC6B69",
"t+	c #D7403D",
"u+	c #DA4D4B",
"v+	c #DE7170",
"w+	c #DF8988",
"x+	c #DF9392",
"y+	c #DF9292",
"z+	c #DF9393",
"A+	c #DC8281",
"B+	c #D85A57",
"C+	c #D63A35",
"D+	c #D62823",
"E+	c #D62722",
"F+	c #FAF4EB",
"G+	c #F4DBB7",
"H+	c #F2CD97",
"I+	c #F4D2A8",
"J+	c #F9EEE1",
"K+	c #FDFEFC",
"L+	c #C5C6C6",
"M+	c #919191",
"N+	c #575757",
"O+	c #292929",
"P+	c #343535",
"Q+	c #555454",
"R+	c #777070",
"S+	c #B7A9A9",
"T+	c #E6D0D0",
"U+	c #F0D2CE",
"V+	c #ECBCB8",
"W+	c #E09294",
"X+	c #D76466",
"Y+	c #D43732",
"Z+	c #D52A24",
"`+	c #D6231E",
" @	c #D51C16",
".@	c #D50F06",
"+@	c #D40400",
"@@	c #D40500",
"#@	c #D4120A",
"$@	c #D4201B",
"%@	c #D52520",
"&@	c #FDFDFA",
"*@	c #FAF7EF",
"=@	c #F9F4EA",
"-@	c #FAF5ED",
";@	c #FDFBF8",
">@	c #FCFDFD",
",@	c #F1F1F1",
"'@	c #CCCCCC",
")@	c #969695",
"!@	c #444444",
"~@	c #110E0E",
"{@	c #3F2B2A",
"]@	c #683A38",
"^@	c #AD7270",
"/@	c #DD9391",
"(@	c #E68784",
"_@	c #E26D6A",
":@	c #D94E4D",
"<@	c #D63735",
"[@	c #D62B26",
"}@	c #D62822",
"|@	c #D62621",
"1@	c #FDFEFE",
"2@	c #FDFFFE",
"3@	c #EDEDEB",
"4@	c #BFC0BE",
"5@	c #5F5F5E",
"6@	c #280B08",
"7@	c #621815",
"8@	c #9B1A15",
"9@	c #C14441",
"0@	c #D85A58",
"a@	c #DD4C49",
"b@	c #DB3532",
"c@	c #D7241E",
"d@	c #D6221C",
"e@	c #FCFDFB",
"f@	c #D9DAD7",
"g@	c #848180",
"h@	c #6E3D3C",
"i@	c #96221D",
"j@	c #C2211B",
"k@	c #D32621",
"l@	c #D62924",
"m@	c #E4E6E5",
"n@	c #AEA9A8",
"o@	c #B06A69",
"p@	c #C62C27",
"q@	c #D1241F",
"r@	c #D52621",
"s@	c #F0F3F2",
"t@	c #D6D3D3",
"u@	c #D59798",
"v@	c #D9484A",
"w@	c #D62D2B",
"x@	c #D4241F",
"y@	c #D42520",
"z@	c #D32420",
"A@	c #D5140A",
"B@	c #FAF9F9",
"C@	c #EFE6E5",
"D@	c #E5ACAD",
"E@	c #DC575C",
"F@	c #D53131",
"G@	c #D1201A",
"H@	c #D0211C",
"I@	c #D3241F",
"J@	c #D1231E",
"K@	c #D2241F",
"L@	c #D41308",
"M@	c #F8EEEC",
"N@	c #E9C3BE",
"O@	c #DF8884",
"P@	c #D84142",
"Q@	c #D42927",
"R@	c #CF201A",
"S@	c #CB1F19",
"T@	c #CF211C",
"U@	c #CD201A",
"V@	c #CC201A",
"W@	c #D1251F",
"X@	c #D4150A",
"Y@	c #F5E2E0",
"Z@	c #E19891",
"`@	c #D9584F",
" #	c #D4231E",
".#	c #D0231D",
"+#	c #CC1F19",
"@#	c #CF211B",
"##	c #D2231E",
"$#	c #CC2019",
"%#	c #CD221C",
"&#	c #D22620",
"*#	c #D4160B",
"=#	c #DA5854",
"-#	c #E07D7A",
";#	c #D83831",
">#	c #CE201A",
",#	c #CB1F18",
"'#	c #CE231C",
")#	c #D32720",
"!#	c #D52722",
"~#	c #F8E4E1",
"{#	c #F4DBDA",
"]#	c #DF7673",
"^#	c #D72C25",
"/#	c #D42620",
"(#	c #D0241E",
"_#	c #CF231D",
":#	c #D1231D",
"<#	c #D52521",
"[#	c #D52721",
"}#	c #D42721",
"|#	c #D1221D",
"1#	c #CE211B",
"2#	c #D6170F",
"3#	c #D95451",
"4#	c #E9ADAA",
"5#	c #F6DFDD",
"6#	c #FDFAF9",
"7#	c #F4DBDB",
"8#	c #DF7774",
"9#	c #D72E27",
"0#	c #D0221D",
"a#	c #D1241E",
"b#	c #D32721",
"c#	c #D51810",
"d#	c #D9524F",
"e#	c #E6A7A5",
"f#	c #F4DBD9",
"g#	c #C91D17",
"h#	c #CA1E18",
"i#	c #CA1F18",
"j#	c #D4170F",
"k#	c #D7514E",
"l#	c #E6A7A4",
"m#	c #C81D16",
"n#	c #CB211A",
"o#	c #CE221C",
"p#	c #D4160E",
"q#	c #CA1F19",
"r#	c #D0251F",
"s#	c #CB2019",
"t#	c #D1261F",
"u#	c #D52822",
"v#	c #CA2019",
"w#	c #D32520",
"x#	c #D4150D",
"y#	c #D6514E",
"z#	c #E5A7A4",
"A#	c #D3140B",
"B#	c #D4504D",
"C#	c #D2130A",
"D#	c #D3504D",
"E#	c #E4A7A4",
"F#	c #D2140A",
"G#	c #D3251F",
"H#	c #D1251E",
"I#	c #D42621",
"J#	c #D2241E",
"K#	c #D32620",
"L#	c #CD221B",
"M#	c #C91E17",
"N#	c #CB1E18",
"O#	c #D11107",
"P#	c #D2251F",
"Q#	c #CD211A",
"R#	c #D00F04",
"S#	c #CE0C01",
"T#	c #D34F4D",
"U#	c #CD1F1A",
"V#	c #CE0B01",
"W#	c #CD211B",
"X#	c #CF201B",
"Y#	c #CF221C",
"Z#	c #CE1F1A",
"`#	c #F3DBDA",
" $	c #DF7674",
".$	c #D72D27",
"+$	c #F4DDDC",
"@$	c #E0807C",
"#$	c #D73730",
"$$	c #D5170F",
"%$	c #D51309",
"&$	c #D5140B",
"*$	c #D41207",
"=$	c #D31005",
"-$	c #D31006",
";$	c #D20F04",
">$	c #D10C01",
",$	c #D00A00",
"'$	c #D00B00",
")$	c #D10000",
"!$	c #D6504C",
"~$	c #E7AFAB",
"{$	c #F5E1DE",
"]$	c #FDFAFA",
"^$	c #F6E3E2",
"/$	c #E49D99",
"($	c #DB6864",
"_$	c #D84E4A",
":$	c #D74C49",
"<$	c #D84844",
"[$	c #DE716D",
"}$	c #EDC3BE",
"|$	c #F8EDE9",
"1$	c #F2DAD8",
"2$	c #EDCBC8",
"3$	c #EBC4C1",
"4$	c #EBC4C0",
"5$	c #ECC3C2",
"6$	c #F0CBCD",
"7$	c #F7E6E5",
"8$	c #FCF8F6",
"9$	c #FCFCFA",
"0$	c #FBFAF7",
"a$	c #FCFAFA",
"b$	c #FDFBFD",
"c$	c #FEFDFE",
"                                                                                                                                ",
"                                                                                                                                ",
"                                                                                                                                ",
"                                                                                                                                ",
"                                                                                                                                ",
"                                                                                                                                ",
"                                                                                                                                ",
"                                                                                                                                ",
"                                                                                                                                ",
"                                                                                                                                ",
"                                                                  . + @ # $ % % % % % % % % % % % $ & + *                       ",
"                                                                  = - ; > , ' ' ' ' ' ' ' ' ) ! , ~ { ] ^ *                     ",
"                  / ( _ : < /                                 [ } | 1 2 3 4 5 6 6 6 6 6 7 8 9 0 a b c d e f                     ",
"                g h i j k l m n o p q                         p r s t u v w x y z z z z A B C D E F G H I J                     ",
"                K L M N O P Q R S T U                         V W X Y Z `  ...+.+.+.+.+.@.#.$.%.&.*.=.-.;.J                     ",
"              >.,.'.).!.~.{.].^./.(._.:.<.                  [ [.}.|.1.2.3.J   4.4.4.4.4.5.6.7.8.9.0.a.b.;.J                     ",
"              c.d.e.f.g.h.i.j.k.l.m.n.o.p./               4.o q.r.s.t.u.v.4.            # w.x.y.z.0.a.b.;.J                     ",
"            [ A.B.C.D.E.F.G.H.I.J.K.L.M.N.O.P.p           4.Q.R.S.T.U.V.W.o o o o o o X.Y.Z.`. +.+0.a.b.;.J                     ",
"            ++@+#+$+%+&+*+=+-+;+>+,+'+)+!+~+{+_ < ]+p * ^+/+(+_+:+<+[+}+|+|+|+|+|+|+|+|+1+2+3+4+5+0.a.b.;.J                     ",
"            6+7+8+9+0+a+b+c+  d+e+f+M.g+h+i+j+k+l+m+n+o+p+q+r+s+t+u+v+w+x+y+y+y+y+y+y+z+A+B+C+D+E+0.a.b.;.J                     ",
"            ++F+G+H+I+J+K+q     c+_ L+M+N+O+P+Q+R+S+T+U+V+W+X+Y+Z+`+ @.@+@@@@@@@@@@@@@+@#@$@%@E+E+0.a.b.;.J                     ",
"              &@*@=@-@;@          >@,@'@)@!@~@{@]@^@/@(@_@:@<@[@}@|@|@5+.+.+.+.+.+.+.+.+5+|@E+E+E+0.a.b.;.J                     ",
"                1@++2@[             p 3@4@5@6@7@8@9@0@a@b@c@d@|@E+E+E+E+E+E+E+E+E+E+E+E+E+E+E+E+E+0.a.b.;.J                     ",
"                                    c+e@f@g@h@i@j@k@4+l@D+E+E+E+E+E+E+E+E+E+E+E+E+E+E+E+E+E+E+E+E+0.a.b.;.J                     ",
"                                      c+m@n@o@p@q@r@5+|@&.E+E+E+E+E+E+E+E+E+E+E+E+E+E+E+E+E+E+E+E+0.a.b.;.J                     ",
"                                        s@t@u@v@w@x@y@r@E+E+E+E+E+E+E+E+E+E+E+E+E+E+E+E+E+E+y@z@y@A@a.b.;.J                     ",
"                                        B@C@D@E@F@G@H@I@E+E+E+E+E+E+E+E+E+E+E+E+E+E+E+E+E+r@J@H@K@L@a.b.;.J                     ",
"                                        M@N@O@P@Q@R@S@T@I@E+E+E+E+E+E+E+E+E+E+E+E+E+E+E+r@J@U@V@W@X@a.b.;.J                     ",
"                                        Y@Z@`@l@ #.#V@+#@#I@r@E+E+E+E+E+E+E+E+E+E+E+E+r@##U@$#%#&#*#=#b.;.J                     ",
"                                        W -#;#D+|@y@J@V@S@H@z@E+E+E+E+E+E+E+E+E+E+E+r@##>#,#'#)#!#0.a.-.~#J                     ",
"                                        {#]#^#D+E+E+/#(#_#:#I@%@<#%@%@%@%@%@%@%@<#[#}#|#1#_#&#!#E+2#3#4#5#6#                    ",
"                                        7#8#9#D+E+E+E+}#)#I@J@0#:#:#:#:#:#:#:#:#:#a#W@:#a#b#!#E+E+c#d#e#f#+                     ",
"                                        7#8#9#D+E+E+E+E+r@I@U@g#h#,#,#,#,#,#,#,#i#i#V@a#r@!#E+E+E+j#k#l#f#+                     ",
"                                        7#8#9#D+E+E+E+E+r@I@+#m#n#%#o#o#o#o#o#1#U@h#h#K@E+E+E+E+E+p#k#l#f#+                     ",
"                                        7#8#9#D+E+E+E+E+r@I@U@q#r#}#[#[#[#[#[#r@I@1#i#K@E+E+E+E+E+p#k#l#f#+                     ",
"                                        7#8#9#D+E+E+E+E+r@I@U@s#t#u#E+E+E+E+E+E+y@1#i#K@E+E+E+E+E+p#k#l#f#+                     ",
"                                        7#8#9#D+E+E+E+E+r@I@U@v#t#u#E+E+E+E+E+r@w#1#i#K@E+E+E+E+E+x#y#z#f#+                     ",
"                                        7#8#9#D+E+E+E+E+r@I@U@v#t#u#E+E+E+E+E+r@w#1#i#K@E+E+E+E+E+A#B#z#f#+                     ",
"                                        7#8#9#D+E+E+E+E+r@I@U@v#t#u#E+E+E+E+E+r@w#1#i#K@E+E+E+E+E+C#D#E#f#+                     ",
"                                        7#8#9#D+E+E+E+E+r@I@U@v#t#u#E+E+E+E+E+r@y@1#i#K@E+E+E+E+E+F#D#E#f#+                     ",
"                                        7#8#9#D+E+E+E+E+r@I@U@v#t#u#E+E+E+E+E+r@G#1#i#K@E+E+E+E+E+F#D#E#f#+                     ",
"                                        7#8#9#D+E+E+E+E+r@I@U@S@H#I#r@r@r@r@r@y@##U@i#K@E+E+E+E+E+F#D#E#f#+                     ",
"                                        7#8#9#D+E+E+E+E+r@I@U@i#0#J###########J@@#+#,#K@E+E+E+E+E+C#D#z#f#+                     ",
"                                        7#8#9#D+E+E+E+E+!#K#L#M#,#S@S@S@S@S@S@S@h#N#>#w#E+E+E+E+y@O#D#z#f#+                     ",
"                                        7#8#9#D+E+E+E+r@w#P#_#Q#V@V@V@V@V@V@V@V@U@T@J@I@y@y@r@r@I@R#D#z#f#+                     ",
"                                        7#8#9#D+E+E+r@J@T@H@K@I#I#I#I#I#I#I#I#I#I#r@r@##H@H@I@y@|#S#T#z#f#+                     ",
"                                        7#8#9#D+E+r@##U@U#|#y@E+E+E+E+E+E+E+E+E+E+E+E+I@@#+#T@J@H@V#T#z#f#+                     ",
"                                        7#8#9#D+r@J#>#S@W#I@r@E+E+E+E+E+E+E+E+E+E+E+E+y@:#+#+#>#X#V#T#z#f#+                     ",
"                                        7#8#9#E+y@Y#S@1#K@r@E+E+E+E+E+E+E+E+E+E+E+E+E+E+y@:#V@N#Z#S#T#z#f#+                     ",
"                                        {#8#9#!#I@0#1#K@r@E+E+E+E+E+E+E+E+E+E+E+E+E+E+r@y@##>#+#>#V#T#z#f#+                     ",
"                                      [ `#8#9#E+x@I@I@r@E+E+E+E+E+E+E+E+E+E+E+E+r@r@r@y@##H@X#X#X#V#T#z#f#+                     ",
"                                      [ `# $.$D+r@r@r@E+E+E+E+E+E+E+E+r@y@y@y@I@##|#|#|#H@X#X#X#X#V#T#z#f#+                     ",
"                                      [ +$@$#$$$%$&$&$&$&$&$&$&$&$&$A@*$=$=$-$;$>$,$,$,$,$,$,$,$'$)$!$~${$]$                    ",
"                                        ^$/$($_$:$:$:$:$:$:$:$:$:$:$:$:$:$:$:$:$:$:$:$:$:$:$:$:$:$<$[$}$|$f                     ",
"                                        # 1$2$3$4$4$4$4$4$4$4$4$4$4$4$4$4$4$4$4$4$4$4$4$4$4$4$4$4$5$6$7$8$g                     ",
"                                        c+++9$0$0$0$0$0$0$0$0$0$0$0$0$0$0$0$0$0$0$0$0$0$0$0$0$0$0$a$b$c$                        ",
"                                            [ c+c+c+c+c+c+c+c+c+c+c+c+c+c+c+c+c+c+c+c+c+c+c+c+c+c+[                             ",
"                                                                                                                                ",
"                                                                                                                                ",
"                                                                                                                                ",
"                                                                                                                                ",
"                                                                                                                                ",
"                                                                                                                                ",
"                                                                                                                                "};
