/* XPM */
static char * exit_xpm[] = {
"64 64 654 2",
"  	c #FFFFFF",
". 	c #FEFEFE",
"+ 	c #FDFDFD",
"@ 	c #F9F9F9",
"# 	c #F3F3F3",
"$ 	c #FBFBFB",
"% 	c #F4F4F4",
"& 	c #F2F2F2",
"* 	c #F5F5F5",
"= 	c #FCFCFC",
"- 	c #ECECEC",
"; 	c #DADADA",
"> 	c #EEEEEE",
", 	c #DBDBDB",
"' 	c #E3E3E3",
") 	c #DFDFDF",
"! 	c #BABABA",
"~ 	c #D4D4D4",
"{ 	c #F0F0F0",
"] 	c #D6D6D6",
"^ 	c #B8B8B8",
"/ 	c #D7D7D7",
"( 	c #F7F7F7",
"_ 	c #C4C4C4",
": 	c #D0D0D0",
"< 	c #FDFEFE",
"[ 	c #EFEFEF",
"} 	c #C3C3C3",
"| 	c #D2D2D2",
"1 	c #EAEAEA",
"2 	c #CCCCCC",
"3 	c #BFBFBF",
"4 	c #EDEDED",
"5 	c #F4F2F1",
"6 	c #EAE7E5",
"7 	c #E9E5E3",
"8 	c #F2F0EF",
"9 	c #D8D8D8",
"0 	c #BEBEBE",
"a 	c #CACACA",
"b 	c #BBBBBB",
"c 	c #FBFAFA",
"d 	c #D9D1CD",
"e 	c #B4A197",
"f 	c #B19B8F",
"g 	c #D3CAC5",
"h 	c #F7F6F5",
"i 	c #D3D3D3",
"j 	c #D5D5D5",
"k 	c #C5C5C5",
"l 	c #D1D1D1",
"m 	c #F3F2F1",
"n 	c #C9BDB4",
"o 	c #98775A",
"p 	c #926C4A",
"q 	c #BFB0A6",
"r 	c #EBE8E7",
"s 	c #FAFAFA",
"t 	c #CDCDCD",
"u 	c #CFCFCF",
"v 	c #F9F8F8",
"w 	c #E9E6E2",
"x 	c #C7B9AA",
"y 	c #A58761",
"z 	c #A08058",
"A 	c #BAAA9A",
"B 	c #DDD8D3",
"C 	c #F5F4F3",
"D 	c #B9B9B9",
"E 	c #F1F1F1",
"F 	c #C0C0C0",
"G 	c #F5F3F0",
"H 	c #E1D9CE",
"I 	c #CFBFA3",
"J 	c #C5AC7E",
"K 	c #C3AA7B",
"L 	c #C7B495",
"M 	c #D5CBBE",
"N 	c #F1EFEC",
"O 	c #F2EFEA",
"P 	c #D8CDBA",
"Q 	c #CAB998",
"R 	c #C4B188",
"S 	c #C2AF87",
"T 	c #C4B28E",
"U 	c #D1C4AC",
"V 	c #EFEBE5",
"W 	c #F0ECE5",
"X 	c #CFC1A8",
"Y 	c #B5A588",
"Z 	c #A1957F",
"` 	c #988F7D",
" .	c #AD9E80",
"..	c #CEBD9E",
"+.	c #EBE6DE",
"@.	c #FAFAFB",
"#.	c #B6B6B6",
"$.	c #F0EAE2",
"%.	c #CCBA9B",
"&.	c #A89779",
"*.	c #8B8275",
"=.	c #7F7A73",
"-.	c #98866C",
";.	c #BFA888",
">.	c #E2DBD4",
",.	c #F6F6F7",
"'.	c #FDFDFE",
").	c #EBEBEB",
"!.	c #ECE6DE",
"~.	c #C2AC8B",
"{.	c #9A8768",
"].	c #7C756C",
"^.	c #73706C",
"/.	c #88725A",
"(.	c #AE9172",
"_.	c #D9D2CB",
":.	c #E3DCD6",
"<.	c #A98E72",
"[.	c #816A50",
"}.	c #6E6B68",
"|.	c #6F6E6C",
"1.	c #816A55",
"2.	c #A48568",
"3.	c #D6CDC7",
"4.	c #DBD4CF",
"5.	c #9F8065",
"6.	c #79604B",
"7.	c #6D6C6B",
"8.	c #727271",
"9.	c #7E6957",
"0.	c #9E7E64",
"a.	c #D3CAC3",
"b.	c #F2F0F0",
"c.	c #FDFCFC",
"d.	c #F1F2F2",
"e.	c #D6CFC9",
"f.	c #A6876A",
"g.	c #826B56",
"h.	c #727171",
"i.	c #767676",
"j.	c #806D5D",
"k.	c #9C7F65",
"l.	c #CFC5BE",
"m.	c #EEECEB",
"n.	c #EAEBEB",
"o.	c #E5E6E6",
"p.	c #D2CBC3",
"q.	c #B59B7A",
"r.	c #8F7C64",
"s.	c #717171",
"t.	c #747475",
"u.	c #857462",
"v.	c #A2876B",
"w.	c #C8BEB5",
"x.	c #E4E2E0",
"y.	c #C7C7C7",
"z.	c #CECECE",
"A.	c #C4C5C5",
"B.	c #BFB7AC",
"C.	c #BEA782",
"D.	c #A79475",
"E.	c #908778",
"F.	c #92897A",
"G.	c #A08E71",
"H.	c #AF9775",
"I.	c #B5ABA0",
"J.	c #C3C1C1",
"K.	c #CBCBCB",
"L.	c #AFAFB0",
"M.	c #8D8D8E",
"N.	c #998F7E",
"O.	c #BFAA83",
"P.	c #C1AC84",
"Q.	c #BBA884",
"R.	c #BAA783",
"S.	c #BFA980",
"T.	c #BBA57C",
"U.	c #958B79",
"V.	c #898989",
"W.	c #AAAAAA",
"X.	c #D1D2D2",
"Y.	c #909091",
"Z.	c #867B67",
"`.	c #BCA981",
" +	c #CFB98B",
".+	c #D1B98A",
"++	c #C6AD7F",
"@+	c #BCA174",
"#+	c #AA9168",
"$+	c #7A6D5A",
"%+	c #898A8A",
"&+	c #C8C8C8",
"*+	c #F6F5F5",
"=+	c #F1F1F0",
"-+	c #F2F1F0",
";+	c #E6E4E2",
">+	c #9F9E9D",
",+	c #7B7363",
"'+	c #AD9C78",
")+	c #CCB688",
"!+	c #D4BB89",
"~+	c #C2A473",
"{+	c #A98A5C",
"]+	c #8C714D",
"^+	c #685B4D",
"/+	c #969595",
"(+	c #DAD8D7",
"_+	c #EDECEA",
":+	c #F1F0F0",
"<+	c #F4F3F3",
"[+	c #FFFFFE",
"}+	c #FDFDFC",
"|+	c #EDEDEC",
"1+	c #D7D6D5",
"2+	c #C3BFBC",
"3+	c #C9C2BB",
"4+	c #CCC4BB",
"5+	c #97938E",
"6+	c #706C64",
"7+	c #8B7E67",
"8+	c #B29F79",
"9+	c #C2AA7D",
"0+	c #AD8F61",
"a+	c #8E6F48",
"b+	c #6D5843",
"c+	c #655E59",
"d+	c #8C8785",
"e+	c #B9B2AC",
"f+	c #C2BBB5",
"g+	c #C4BFBB",
"h+	c #CFCECC",
"i+	c #E7E7E6",
"j+	c #FFFEFE",
"k+	c #FCFCFB",
"l+	c #F8F7F4",
"m+	c #F4F1EC",
"n+	c #F2EDE5",
"o+	c #EDE7DC",
"p+	c #D7CEC3",
"q+	c #BAADA0",
"r+	c #A49181",
"s+	c #A99481",
"t+	c #B19E8A",
"u+	c #918678",
"v+	c #897F6C",
"w+	c #A19070",
"x+	c #A2916F",
"y+	c #978665",
"z+	c #856E4F",
"A+	c #795C3C",
"B+	c #73573C",
"C+	c #6F6054",
"D+	c #80736A",
"E+	c #9A8778",
"F+	c #A08C7A",
"G+	c #AB9986",
"H+	c #C5B8A4",
"I+	c #DDD3C2",
"J+	c #EDE6D9",
"K+	c #F0EBE1",
"L+	c #F2EEE8",
"M+	c #F5F3EF",
"N+	c #FBFAF9",
"O+	c #F8F6F3",
"P+	c #EDE8DF",
"Q+	c #E5DCCC",
"R+	c #E1D3BA",
"S+	c #DBC9A9",
"T+	c #C2A984",
"U+	c #A78359",
"V+	c #9A7347",
"W+	c #9C774D",
"X+	c #A0815C",
"Y+	c #948165",
"Z+	c #A59473",
"`+	c #C0A97E",
" @	c #9B8867",
".@	c #5A5247",
"+@	c #4E4741",
"@@	c #6D533A",
"#@	c #866036",
"$@	c #7A5E44",
"%@	c #785F48",
"&@	c #886644",
"*@	c #926D45",
"=@	c #A9885E",
"-@	c #CCB284",
";@	c #D9C297",
">@	c #DAC7A3",
",@	c #DDCEB2",
"'@	c #E1D5C1",
")@	c #E6DFD2",
"!@	c #F4F1ED",
"~@	c #E1D4BE",
"{@	c #DFCDAA",
"]@	c #E0CBA0",
"^@	c #DCC496",
"/@	c #BFA070",
"(@	c #9F743F",
"_@	c #966B38",
":@	c #9D7646",
"<@	c #A68558",
"[@	c #A38D67",
"}@	c #AA9771",
"|@	c #B39C72",
"1@	c #8A785A",
"2@	c #4C433C",
"3@	c #463F3C",
"4@	c #694F38",
"5@	c #835C32",
"6@	c #795836",
"7@	c #886031",
"8@	c #8F6535",
"9@	c #A27D50",
"0@	c #C4A675",
"a@	c #D5BB88",
"b@	c #DCC493",
"c@	c #DEC89B",
"d@	c #DDC89F",
"e@	c #DDCBAC",
"f@	c #EDE6DB",
"g@	c #EDE6DA",
"h@	c #D7C5A1",
"i@	c #D6BF8E",
"j@	c #D8BF8B",
"k@	c #D3B986",
"l@	c #B59563",
"m@	c #956933",
"n@	c #906532",
"o@	c #9C7645",
"p@	c #AC8C5C",
"q@	c #B59D71",
"r@	c #AF9B73",
"s@	c #9D8966",
"t@	c #927F5F",
"u@	c #8B785B",
"v@	c #847054",
"w@	c #7E6649",
"x@	c #7B5C3A",
"y@	c #7C5A35",
"z@	c #815B30",
"A@	c #875D28",
"B@	c #8A5F2C",
"C@	c #9A7548",
"D@	c #BA9C6C",
"E@	c #CEB381",
"F@	c #DAC18D",
"G@	c #D4BA84",
"H@	c #CEB587",
"I@	c #E0D6C7",
"J@	c #F4F3F2",
"K@	c #FCFCFD",
"L@	c #FEFEFD",
"M@	c #D5C39E",
"N@	c #CFBA90",
"O@	c #CCB78D",
"P@	c #C4AD85",
"Q@	c #AC906B",
"R@	c #947250",
"S@	c #916F4F",
"T@	c #9F805D",
"U@	c #B1976F",
"V@	c #C1A97D",
"W@	c #B29E77",
"X@	c #8B7D62",
"Y@	c #AC9873",
"Z@	c #C7AD7F",
"`@	c #BEA375",
" #	c #9D8662",
".#	c #75624B",
"+#	c #816342",
"@#	c #8C6842",
"##	c #8B6846",
"$#	c #8D6A4A",
"%#	c #9C7D5C",
"&#	c #B89F79",
"*#	c #C9B289",
"=#	c #D0BB90",
"-#	c #D2BD92",
";#	c #CAB388",
">#	c #C1A985",
",#	c #D5CABE",
"'#	c #ECEAE9",
")#	c #F5F2ED",
"!#	c #EAE2D5",
"~#	c #E6DED1",
"{#	c #E4DDD0",
"]#	c #E0D8CD",
"^#	c #D3CBC2",
"/#	c #C6BCB6",
"(#	c #BFB6AF",
"_#	c #C7BEB6",
":#	c #CCC2B6",
"<#	c #B3A48D",
"[#	c #8F8165",
"}#	c #7C7465",
"|#	c #B4A17D",
"1#	c #D9BF8D",
"2#	c #D6BB89",
"3#	c #B09B77",
"4#	c #766B5D",
"5#	c #776450",
"6#	c #968574",
"7#	c #B4AAA2",
"8#	c #BDB4AD",
"9#	c #C3BAB2",
"0#	c #D0C7BC",
"a#	c #DCD4C7",
"b#	c #E6DED0",
"c#	c #E7DFD2",
"d#	c #E4DBCE",
"e#	c #E9E4E0",
"f#	c #FBFBFA",
"g#	c #FAFAF9",
"h#	c #ECECEB",
"i#	c #E2E3E3",
"j#	c #DEDEDE",
"k#	c #D2D1D0",
"l#	c #A49F99",
"m#	c #777067",
"n#	c #76736C",
"o#	c #B2A07E",
"p#	c #DEC591",
"q#	c #B9A782",
"r#	c #7C756B",
"s#	c #7F776B",
"t#	c #A29D94",
"u#	c #C6C5C4",
"v#	c #E2E2E1",
"w#	c #E8E8E8",
"x#	c #F1F2F1",
"y#	c #FAF9F9",
"z#	c #FEFEFF",
"A#	c #F8F9F9",
"B#	c #D3D4D4",
"C#	c #B2B2B2",
"D#	c #ACA6A3",
"E#	c #999490",
"F#	c #7D7974",
"G#	c #A79474",
"H#	c #DAC18E",
"I#	c #B9A681",
"J#	c #837D73",
"K#	c #A39C91",
"L#	c #B4AEA4",
"M#	c #B3B2B1",
"N#	c #CECFCF",
"O#	c #F6F6F6",
"P#	c #C9C9C9",
"Q#	c #CFCCCB",
"R#	c #B8B5B4",
"S#	c #7F7C79",
"T#	c #937C5F",
"U#	c #B69665",
"V#	c #C3A574",
"W#	c #A58F6D",
"X#	c #817C75",
"Y#	c #B7B4AE",
"Z#	c #D1CEC9",
"`#	c #CECDCC",
" $	c #DDDDDD",
".$	c #87827F",
"+$	c #826549",
"@$	c #986F3D",
"#$	c #A07847",
"$$	c #8A6D4E",
"%$	c #837C78",
"&$	c #ECEBEB",
"*$	c #E0DEDC",
"=$	c #A2968E",
"-$	c #8A6D53",
";$	c #8B6336",
">$	c #8E6539",
",$	c #8B6A4A",
"'$	c #9E8E82",
")$	c #DAD7D5",
"!$	c #EBE7E4",
"~$	c #BCADA1",
"{$	c #9C8067",
"]$	c #8D673E",
"^$	c #967555",
"/$	c #B19E8E",
"($	c #E6E2DE",
"_$	c #FEFFFF",
":$	c #E9E9E9",
"<$	c #F1EDEA",
"[$	c #D0C4B7",
"}$	c #B19980",
"|$	c #9C784F",
"1$	c #9D7A50",
"2$	c #A68A6D",
"3$	c #BFAEA0",
"4$	c #EBE7E3",
"5$	c #F6F4F2",
"6$	c #E1DBD3",
"7$	c #CBBAA3",
"8$	c #BCA074",
"9$	c #BDA377",
"0$	c #C4B298",
"a$	c #D4CCC2",
"b$	c #F1EFED",
"c$	c #E7E5E1",
"d$	c #D9CCB5",
"e$	c #D1BA8A",
"f$	c #D2BB8D",
"g$	c #D5C8AF",
"h$	c #DFDCD6",
"i$	c #F4F4F3",
"j$	c #F4F4F5",
"k$	c #DEDDDB",
"l$	c #D5C9B2",
"m$	c #D3BD8D",
"n$	c #D3BC8D",
"o$	c #D7D5D1",
"p$	c #F2F2F1",
"q$	c #C6C6C6",
"r$	c #F3F3F4",
"s$	c #DBDAD9",
"t$	c #D2C6B0",
"u$	c #CFB98A",
"v$	c #CEB688",
"w$	c #CCBEA7",
"x$	c #D3D1CF",
"y$	c #F1F0F1",
"z$	c #E2E1E0",
"A$	c #D1C6B3",
"B$	c #C4AE82",
"C$	c #C0A77B",
"D$	c #C8BAA7",
"E$	c #D9D7D6",
"F$	c #BCBCBC",
"G$	c #FCFDFD",
"H$	c #D1C7BA",
"I$	c #AD946F",
"J$	c #A6875D",
"K$	c #C7BAAD",
"L$	c #ECEBEA",
"M$	c #FAFBFB",
"N$	c #CFC6BD",
"O$	c #9A7C5B",
"P$	c #936D44",
"Q$	c #C7BAB0",
"R$	c #CCC1B9",
"S$	c #93714F",
"T$	c #906A42",
"U$	c #C7BAB1",
"V$	c #CBBFB7",
"W$	c #926D49",
"X$	c #8F6941",
"Y$	c #C6BAB1",
"Z$	c #CDC2BA",
"`$	c #967353",
" %	c #906B47",
".%	c #C7BBB3",
"+%	c #F7F6F6",
"@%	c #DCDCDC",
"#%	c #FAF9F8",
"$%	c #D1C6BE",
"%%	c #9E8169",
"&%	c #927255",
"*%	c #C6BBB4",
"=%	c #D9D9D9",
"-%	c #E7E7E7",
";%	c #F8F7F5",
">%	c #F1EDE5",
",%	c #CFBFAA",
"'%	c #AF9574",
")%	c #997D5C",
"!%	c #B5A495",
"~%	c #D7CEC6",
"{%	c #DCD5CE",
"]%	c #E5DFDB",
"^%	c #F3F1EF",
"/%	c #E5E5E5",
"(%	c #EFEDE9",
"_%	c #E0D5C3",
":%	c #D5C4A5",
"<%	c #CFBD9C",
"[%	c #CBB78E",
"}%	c #C0A87C",
"|%	c #A78D66",
"1%	c #A58C6C",
"2%	c #B0997F",
"3%	c #B19C85",
"4%	c #C5B8AB",
"5%	c #E5E0DC",
"6%	c #F7F5F4",
"7%	c #F8F8F7",
"8%	c #EDEAE5",
"9%	c #DED5C8",
"0%	c #D3C8B4",
"a%	c #D0C4AE",
"b%	c #CFBE9E",
"c%	c #CAB48B",
"d%	c #BAA57D",
"e%	c #BCAB8F",
"f%	c #C6B9A6",
"g%	c #C6BAA9",
"h%	c #D1C8BC",
"i%	c #E6E2DC",
"j%	c #F6F5F3",
"k%	c #F3F0EE",
"l%	c #EAE6E0",
"m%	c #E4DFD8",
"n%	c #E0DBD3",
"o%	c #D7CBB7",
"p%	c #CDBB97",
"q%	c #C5B491",
"r%	c #D2C7B3",
"s%	c #E3DED6",
"t%	c #E5E0D9",
"u%	c #E8E4DE",
"v%	c #F0EEEA",
"w%	c #F9F8F7",
"x%	c #FCFBFA",
"y%	c #F2F1EF",
"z%	c #DDD5C8",
"A%	c #CABB9F",
"B%	c #C8B99E",
"C%	c #DFD8CC",
"D%	c #FBFCFC",
"E%	c #EFEFEE",
"F%	c #D6CFC4",
"G%	c #C1B39A",
"H%	c #C6B89F",
"I%	c #E2DCD1",
"J%	c #F7F8F8",
"K%	c #E5E4E3",
"L%	c #C6C0B7",
"M%	c #B2A58E",
"N%	c #C1B39B",
"O%	c #E1DBD0",
"P%	c #DCDBDB",
"Q%	c #B5AFA8",
"R%	c #A0927E",
"S%	c #B9AC98",
"T%	c #DFD9D1",
"U%	c #B6B1AC",
"V%	c #A19589",
"W%	c #BAAEA1",
"X%	c #E0DAD4",
"Y%	c #C4C0BE",
"Z%	c #B3ABA5",
"`%	c #C5BBB4",
" &	c #E4DFDB",
".&	c #E7E6E6",
"+&	c #D3D1D0",
"@&	c #CAC6C3",
"#&	c #D6D1CD",
"$&	c #EBE8E6",
"%&	c #E5E4E4",
"&&	c #E4E2E1",
"*&	c #EAE8E6",
"=&	c #F5F3F2",
"                                                                                                                                ",
"                                                                                                                                ",
"                  . + .                                                                                 . + + +                 ",
"                  @ # $                                                                                 $ % & * =               ",
"                . - ; - $                                                                             $ > , ' & =               ",
"                . ) ! ~ > $                                                                         = { ] ^ / ( +               ",
"                . > ~ _ : > $                               . < + .                               $ [ : } | 1 = .               ",
"                  + & 2 3 / 4 $ .                         . 5 6 7 8 +                         . $ > 9 0 a { +                   ",
"                    = [ / b | > $                         c d e f g h .                       $ { i ! j > $                     ",
"                      + 4 : k l 4 $                     + m n o p q r s                     $ > | k t - +                       ",
"                        = & u ! / > $                   v w x y z A B C                   = [ 9 D t E =                         ",
"                          = 4 ] F : > $                 G H I J K L M N                 $ { l 3 j - =                           ",
"                            + [ t _ ~ 4 $               O P Q R S T U V .             $ > ] } a > +                             ",
"                              $ E i ^ ~ > $             W X Y Z `  ...+.@..         = { ] #.| { $                               ",
"                                + - i _ : > $           $.%.&.*.=.-.;.>.,.'.      $ [ l } | ).+                                 ",
"                                  + E t F / 4 $ .       !.~.{.].^./.(._.# +   . $ > 9 3 a { +                                   ",
"                                    $ [ ] ! l > $     + :.<.[.}.|.1.2.3.& +   = { | D j > $                                     ",
"                                      + 4 u k | 4 $ . @ 4.5.6.7.8.9.0.a.b.c.= [ i _ t - +                                       ",
"                                        = & : b / > @ d.e.f.g.h.i.j.k.l.m.@ E ; ! t E =                                         ",
"                                          = 4 / F l n.o.p.q.r.s.t.u.v.w.x.[ j 3 j - =                                           ",
"                                            + { u y.z.A.B.C.D.E.F.G.H.I.J.| y.K.> +                                             ",
"                                              = * ; L.M.N.O.P.Q.R.S.T.U.V.W.~ { $                                               ",
"                                                  & X.Y.Z.`. +.+++@+#+$+%+&+- .                                                 ",
"                                            $ *+=+-+;+>+,+'+)+!+~+{+]+^+/+(+_+:+<+@                                             ",
"                                      [+  }+|+1+2+3+4+5+6+7+8+9+0+a+b+c+d+e+f+g+h+i+=   j+[+                                    ",
"                                  k+l+m+n+o+p+q+r+s+t+u+v+w+x+y+z+A+B+C+D+E+F+G+H+I+J+K+L+M+N+                                  ",
"                                  O+P+Q+R+S+T+U+V+W+X+Y+Z+`+ @.@+@@@#@$@%@&@*@=@-@;@>@,@'@)@!@.                                 ",
"                                j+n+~@{@]@^@/@(@_@:@<@[@}@|@1@2@3@4@5@6@6@7@8@9@0@a@b@c@d@e@f@$ .                               ",
"                                . g@h@i@j@k@l@m@n@o@p@q@r@s@t@u@v@w@x@y@z@A@B@C@D@E@j@F@G@H@I@J@K@                              ",
"                                L@J+M@N@O@P@Q@R@S@T@U@V@W@X@Y@Z@`@ #.#+#@###$#%#&#*#=#-#;#>#,#'#c                               ",
"                                . )#!#~#{#]#^#/#(#_#:#<#[#}#|#1#2#3#4#5#6#7#8#9#0#a#b#c#d#]#e#<+=                               ",
"                                  + f#s c g#% h#i#j#k#l#m#n#o#1#p#q#r#s#t#u#9 v#w#x#y#c s s = +                                 ",
"                                    z#. z#. + A#> B#C#D#E#F#G#E@H#I#J#K#L#M#N#w#O#= . z#z#z#                                    ",
"                                            + & 9 P#&+Q#R#S#T#U#V#W#X#Y#Z#`#a | ).@                                             ",
"                                          = #  $b t [ E u .$+$@$#$$$%$u#&$# ~ b | 1 s .                                         ",
"                                        + % j 3 i 1 $ + *$=$-$;$>$,$'$)$@ = { ; F t 1 @                                         ",
"                                      + E ; _ &+- =     !$~${$]$]$^$/$($_$    & l _ : :$@ .                                     ",
"                                    = % ; ^ u > s       <$[$}$|$1$2$3$4$      + * / ^ : 1 s                                     ",
"                                  + # j _ u :$$         5$6$7$8$9$0$a$b$        . [ / _ t 1 @                                   ",
"                                + &  $3 &+> $           ( c$d$e$f$g$h$i$          . % : F | :$s .                               ",
"                              + % / ! i - s             j$k$l$m$n$U o$p$            + & ; ! t 1 s                               ",
"                            + & / q$K.1 =               r$s$t$u$v$w$x$y$                { | k z.1 @                             ",
"                          = #  $! K.> $                 O#z$A$B$C$D$E$#                 + * i F$| 1 s .                         ",
"                        + % j 3 i 1 $                   G$m H$I$J$K$L$M$                  + { ; 3 2 1 @                         ",
"                      + E , _ &+- =                       c N$O$P$Q$h                         & u } : :$@ .                     ",
"                    = % , ^ : > s                         N+R$S$T$U$*+                        = % / ! : 1 s                     ",
"                  + # j k : :$$                           N+V$W$X$Y$*+                          . [ / } 2 1 @                   ",
"                + & j#F &+> $                             c Z$`$ %.%+%                            . % : F i - =                 ",
"              . @ @%F$i - s                           j+  #%$%%%&%*%h . .                           + & ; 0 =%O#+               ",
"              . $ -%j ).$                         }+;%>%g@c#,%'%)%!%~%{%]%^%f#                          { / /%@ .               ",
"                  + $ +                           y#(%_%:%<%[%}%|%1%2%3%4%5%6%                          = @ $ .                 ",
"                                                  7%8%9%0%a%b%c%d%e%f%g%h%i%j%                                                  ",
"                                                  g#k%l%m%n%o%p%q%r%s%t%u%v%w%                                                  ",
"                                                  . }+x%w%y%z%A%B%C%;%f#f#c..                                                   ",
"                                                        D%E%F%G%H%I%}+                                                          ",
"                                                        J%K%L%M%N%O%k+                                                          ",
"                                                        * P%Q%R%S%T%k+                                                          ",
"                                                        * P%U%V%W%X%k+                                                          ",
"                                                        O#v#Y%Z%`% &=                                                           ",
"                                                        J%.&+&@&#&$&+                                                           ",
"                                                        @ 4 %&&&*&=&.                                                           ",
"                                                        $ % O#g#$ +                                                             ",
"                                                        + $ +                                                                   ",
"                                                                                                                                "};
