/* XPM */
static char * wall_xpm[] = {
"64 62 180 2",
"  	c #BABABA",
". 	c #D1D1D1",
"+ 	c #EBEBEB",
"@ 	c #F5F5F5",
"# 	c #F8F8F8",
"$ 	c #F9F9F9",
"% 	c #FAFAFA",
"& 	c #F3F3F3",
"* 	c #DBDBDB",
"= 	c #A0A0A0",
"- 	c #727272",
"; 	c #9D9D9D",
"> 	c #C8C8C8",
", 	c #E3E3E3",
"' 	c #EAEAEA",
") 	c #AEAEAE",
"! 	c #4E4E4E",
"~ 	c #ABABAB",
"{ 	c #C0C0C0",
"] 	c #D8D8D8",
"^ 	c #E2E2E2",
"/ 	c #E4E4E4",
"( 	c #E5E5E5",
"_ 	c #E7E7E7",
": 	c #6C6C6C",
"< 	c #909090",
"[ 	c #B8B8B8",
"} 	c #DFDFDF",
"| 	c #E6E6E6",
"1 	c #F0F0F0",
"2 	c #E8E8E8",
"3 	c #949494",
"4 	c #A8A8A8",
"5 	c #BDBDBD",
"6 	c #C6C6C6",
"7 	c #C9C9C9",
"8 	c #CACACA",
"9 	c #CECECE",
"0 	c #D9D9D9",
"a 	c #E0E0E0",
"b 	c #D5D5D5",
"c 	c #9F9F9F",
"d 	c #636363",
"e 	c #7D7D7D",
"f 	c #B7B7B7",
"g 	c #C3C3C3",
"h 	c #CCCCCC",
"i 	c #D6D6D6",
"j 	c #888888",
"k 	c #9B9B9B",
"l 	c #AFAFAF",
"m 	c #BBBBBB",
"n 	c #C1C1C1",
"o 	c #D0D0D0",
"p 	c #DCDCDC",
"q 	c #D4D4D4",
"r 	c #5E5E5E",
"s 	c #737373",
"t 	c #AAAAAA",
"u 	c #B5B5B5",
"v 	c #BFBFBF",
"w 	c #CBCBCB",
"x 	c #DEDEDE",
"y 	c #858585",
"z 	c #979797",
"A 	c #B3B3B3",
"B 	c #B6B6B6",
"C 	c #DADADA",
"D 	c #D3D3D3",
"E 	c #5C5C5C",
"F 	c #707070",
"G 	c #A5A5A5",
"H 	c #B0B0B0",
"I 	c #DDDDDD",
"J 	c #969696",
"K 	c #B2B2B2",
"L 	c #CDCDCD",
"M 	c #6F6F6F",
"N 	c #8F8F8F",
"O 	c #B4B4B4",
"P 	c #B9B9B9",
"Q 	c #C7C7C7",
"R 	c #BCBCBC",
"S 	c #A4A4A4",
"T 	c #ADADAD",
"U 	c #848484",
"V 	c #A6A6A6",
"W 	c #5B5B5B",
"X 	c #8D8D8D",
"Y 	c #C2C2C2",
"Z 	c #A9A9A9",
"` 	c #4B4B4B",
" .	c #828282",
"..	c #8E8E8E",
"+.	c #A2A2A2",
"@.	c #A3A3A3",
"#.	c #C5C5C5",
"$.	c #575757",
"%.	c #6D6D6D",
"&.	c #9E9E9E",
"*.	c #A7A7A7",
"=.	c #9C9C9C",
"-.	c #454545",
";.	c #7B7B7B",
">.	c #898989",
",.	c #8B8B8B",
"'.	c #929292",
").	c #505050",
"!.	c #676767",
"~.	c #7C7C7C",
"{.	c #868686",
"].	c #919191",
"^.	c #3C3C3C",
"/.	c #696969",
"(.	c #6B6B6B",
"_.	c #6E6E6E",
":.	c #717171",
"<.	c #838383",
"[.	c #616161",
"}.	c #3D3D3D",
"|.	c #555555",
"1.	c #656565",
"2.	c #6A6A6A",
"3.	c #7A7A7A",
"4.	c #878787",
"5.	c #8C8C8C",
"6.	c #282828",
"7.	c #5A5A5A",
"8.	c #595959",
"9.	c #585858",
"0.	c #545454",
"a.	c #4C4C4C",
"b.	c #4F4F4F",
"c.	c #626262",
"d.	c #666666",
"e.	c #464646",
"f.	c #525252",
"g.	c #565656",
"h.	c #606060",
"i.	c #686868",
"j.	c #414141",
"k.	c #999999",
"l.	c #989898",
"m.	c #7F7F7F",
"n.	c #4A4A4A",
"o.	c #959595",
"p.	c #646464",
"q.	c #494949",
"r.	c #767676",
"s.	c #939393",
"t.	c #9A9A9A",
"u.	c #7E7E7E",
"v.	c #BEBEBE",
"w.	c #CFCFCF",
"x.	c #E9E9E9",
"y.	c #D2D2D2",
"z.	c #E1E1E1",
"A.	c #808080",
"B.	c #777777",
"C.	c #C4C4C4",
"D.	c #747474",
"E.	c #D7D7D7",
"F.	c #B1B1B1",
"G.	c #8A8A8A",
"H.	c #A1A1A1",
"I.	c #ACACAC",
"J.	c #5D5D5D",
"K.	c #484848",
"L.	c #757575",
"M.	c #474747",
"N.	c #515151",
"O.	c #535353",
"P.	c #4D4D4D",
"Q.	c #818181",
"R.	c #313131",
"S.	c #434343",
"T.	c #5F5F5F",
"U.	c #3F3F3F",
"V.	c #272727",
"W.	c #797979",
"  . + @ # # # # # # # # # # # # # # # # # # # # # # $ % & * = - ; > , & # # # # # # # # # # # # # # # # # # # # # # $ % % ' ) ! ",
"~ { ] ^ / ( ( ( ( ( ( ( ( ( ( ( ( ( ( ( ( ( ( ( ( ( _ + ' ] = : < [ . } / ( ( ( ( ( ( ( ( ( ( ( ( ( ( ( ( ( ( ( ( ( | + 1 2 ) ! ",
"3 4 5 6 7 8 8 8 8 8 8 8 8 8 8 8 8 8 8 8 8 8 8 8 8 8 9 0 a b c d e = f g 7 8 8 8 8 8 8 8 8 8 8 8 8 8 8 8 8 8 8 8 8 8 h i / / ) ! ",
"j k l [   m m m m m m m m m m m m m m m m m m m   m n o p q c r s 3 t u   m m m m m m m m m m m m m m m m m m m   m v w x , ) ! ",
"y z t A u B B B B B B B B B B B B B B B B B B B u B 5 9 C D c E F < G H u B B B B B B B B B B B B B B B B B B B u u   > I ^ ) ! ",
"y J t K u u u u u u u u u u u u u u u u u u u u u u 5 L C D c E M N G H O u u u u u u u u u u u u u u u u u u u u u P Q I ^ ) ! ",
"y J t K u u u u u u u u u u u u u u u u u u u u u u 5 L C D c E M N G H O u u u u u u u u u u u u u u u u u u u u u P Q I ^ ) ! ",
"y J t K u u u u u u u u u u u u u u u u u u u u u u 5 L C D c E M N G H O u u u u u u u u u u u u u u u u u u u u u P Q I ^ ) ! ",
"y J t K u u u u u u u u u u u u u u u u u u u u u u 5 L C D c E M N G H O u u u u u u u u u u u u u u u u u u u u u   > I ^ ) ! ",
"y J t K O u u u u u u u u u u u u u u u u u u u u u R L C D c E M N S H u u u u u u u u u u u u u u u u u u u u u u   Q p ^ T ! ",
"U 3 V T H H H H H H H H H H H H H H H H H H H H H H B > q L k W M X = ~ H H H H H H H H H H H H H H H H H H H H H H u Y i p Z ` ",
" ...k = +.+.+.+.+.+.+.+.+.+.+.+.+.+.+.+.+.+.+.+.+.@.4 [ #.v N $.%.j z &.+.+.+.+.+.+.+.+.+.+.+.+.+.+.+.+.+.+.+.+.+.+.*.A 6 h =.-.",
";. .>.,.X X X X X X X X X X X X X X X X X X X X X X '.= ~ *.e ).!.~.{.,.X X X X X X X X X X X X X X X X X X X X X X ].=.T K j ^.",
"!./.(.: : %.%.%.%.%.%.%.%._._.M _._.%.%.%.%.%.%.%.%.:.e {.<.[.}.|.1.2.: : %.%.%.%.%.%.%.%.%._.M _._.%.%.%.%.%.%.%.%.F 3.4.5./.6.",
"7.7.8.8.8.8.8.8.8.8.8.8.9.0.! a.b.0.$.8.8.8.8.8.8.8.E c.!.d.0.e.).9.8.8.8.8.8.8.8.8.8.8.8.|.b.` ! f.g.9.8.8.8.8.8.7.W h.i.2.9.j.",
"k.l.l.l.l.l.l.l.l.l.l.z ].m.r n.c.e X o.l.l.l.l.l.l.l.k.k.k.z J z l.l.l.l.l.l.l.l.l.l.l.3 {.p.q.E r.j s.z l.l.l.l.l.l.k.k.t.l.J ",
"b b q q q q q q q b i i 9 u y 1.4.) #.o q b q q q q q q q q q b q q q q q q q q q b b i D n < p.u.G v.L q b q q q q q q q q q b ",
"a a a } } } } } } a , 2 / h z _...f w.* a a } } } } } } } } } } } } } } } } } } } a ^ | x.] S _.U T > ] } a } } } } } } } } } } ",
"L L L h h h h h h h y.I z.L k.i.A.V 5 > h h h h h h h h h h h h h h h h h h h h h h o C / 0 V /.B.; B #.h h h h h h h h h h h h ",
"5 5 R R R R R R m R C.q p h k.d D.l.T f m R R R R R R R R R R R R R R R R R R R R R Y o x E.V 1.: < *.u m R R R R R R R R R R R ",
"[ f B B B B B B B B v . * w k.c.F s.*.F.u B B B B B B B B B B B B B B B B B B B B B R h p E.V p.i.G.H.) u B B B B B B B B B B B ",
"f B u u u u u u u u v.o C w k.c.M '.V H O u u u u u u u u u u u u u u u u u u u u u m h p E.V p.!.G.H.) O u u u u u u u u u u u ",
"f B u u u u u u u u v.o C w k.c.M '.V F.O u u u u u u u u u u u u u u u u u u u u u R h p E.V p.!.G.H.) O u u u u u u u u u u u ",
"f B u u u u u u u u v.o C w k.c.M '.V F.O u u u u u u u u u u u u u u u u u u u u u R h p E.V p.!.G.H.) O u u u u u u u u u u u ",
"f B u u u u u u u u v.o C w k.c.M '.*.F.O u u u u u u u u u u u u u u u u u u u u u R h p E.V p.!.G.H.) O u u u u u u u u u u u ",
"B B u O O O O O O u v.o C w k.[.M '.*.F.O O O O O O O O O O O O O O O O O O O O O u m w * i V p.!.G.H.) O O O O O O O O O O O O ",
"K F.F.H H H H H H F.P w b 6 o.h.M < @.I.H H H H H H H H H H H H H H H H H H H H H H f 6 i . H.c.!.j ; t H H H H H H H H H H H H ",
"G G S S S S S S S S I.5 Q P ,.J.%.,.t.H.S S S S S S S S S S S S S S S S S S S S S G t P > g z r d.U o.c @.S S S S S S S S S S S ",
"].].< < < < < < N N z V l @.3.g.i.A.G...N < < < < < < < < < < < < < < < < < < < < < o.+.H I.U |.[.3.{.X N < < < < < < < < < < < ",
"- :.:.:.:.:.:.:.:.:.B.U ,. .c.K.W (.F :.:.:.:.:.:.:.:.:.:.:.:.:.:.:.:.:.:.:.:.:.:.:.L.A.,.>.2.M.0.!._.:.:.:.:.:.:.:.:.:.:.:.:.:.",
"N.0.$.9.9.9.9.9.9.8.E d !.c.f.K.).9.8.8.9.9.9.9.9.9.9.9.9.0.! n.! O.g.9.9.9.9.9.9.8.W [.!.d.g.M.P.g.8.8.8.9.9.9.9.9.9.9.9.g.b.K.",
"s Q.].z k.k.k.k.k.k.k.t.t.t.l.l.l.k.k.k.k.k.k.k.k.k.k.k.3 U [.e.[.;.5.o.k.k.k.k.k.k.k.t.t.t.k.l.l.k.k.k.k.k.k.k.k.k.k.k.l.N /.R.",
"@.B h b ] ] ] ] ] ] ] ] ] ] ] ] ] ] ] ] ] ] ] ] ] ] 0 C q { X d j T #.D ] ] ] ] ] ] ] ] ] ] ] ] ] ] ] ] ] ] ] ] ] ] 0 C * 9 k.S.",
"G   . * I I I I I I I I I I I I I I I I I I I I I x } ( / D =.i.5.K 8 ] I I I I I I I I I I I I I I I I I I I I I I } , ' , t a.",
"z t { 7 w w w w w w w w w w w w w w w w w w w w w h o C z.b c d m.@.  6 w w w w w w w w w w w w w w w w w w w w w w 9 ] ( / T ! ",
"G.; H P m R R R R R R R R R R R R R R R R R R R m R Y . I q c T.D.o.~ f m R R R R R R R R R R R R R R R R R R R R R { L } , ) ! ",
"y z t K u u u u u u u u u u u u u u u u u u u u u B 5 9 * q c E F < G H u u u u u u u u u u u u u u u u u u u u u B   > I , ) ! ",
"U J t K O u u u u u u u u u u u u u u u u u u u O u 5 L C D c E M N G H O u u u u u u u u u u u u u u u u u u u u u P Q I ^ ) ! ",
"y J t K u u u u u u u u u u u u u u u u u u u u u u 5 L C D c E M N G H O u u u u u u u u u u u u u u u u u u u u u P Q I ^ ) ! ",
"y J t K u u u u u u u u u u u u u u u u u u u u u u 5 L C D c E M N G H O u u u u u u u u u u u u u u u u u u u u u P Q I ^ ) ! ",
"y J t K u u u u u u u u u u u u u u u u u u u u u u 5 L C D c E M N G H O u u u u u u u u u u u u u u u u u u u u u   > I ^ ) ! ",
"y J t K O O O O O O O O O O O O O O O O O O O O O O R L 0 D c E M N S l A O O O O O O O O O O O O O O O O O O O O O P Q p ^ T ! ",
"U 3 V T l H H H H H H H H H H H H H H H H H H H H H f Q q 9 k W M ..H.~ l H H H H H H H H H H H H H H H H H H H H H u Y E.p 4 a.",
"<.N =.+.S G G G G G G G G G G G G G G G G G G G S G I.m Q n ].9.%.>.l.H.S G G G G G G G G G G G G G G G G G G G G G Z B 7 w.&.e.",
"e U ,.N < < < < < < < < < < ].].< < < < < < < < < < J S l t A.N.i.u.>...< < < < < < < < < < < ].].< < < < < < < < ].3 c F.B ,.^.",
"/.(.%._._._._._._._._._._.M F F M _._._._._._._._._.s m.j y c.U.g.!.(.%._._._._._._._._._._.M F F M _._._._._._._.M :.;.>.X 2.V.",
"h.h.h.h.h.h.h.h.h.h.h.h.J.$.b.` ).$.E T.h.h.h.h.h.h.d i.: (.W ).8.T.h.h.h.h.h.h.h.h.h.h.T.7.N.` b.|.7.r h.h.h.h.h.h.[.d.%.M T.q.",
"; ; =.=.=.=.=.=.=.=.; k o. .T.n.d m.< k.=.=.=.=.=.=.=.=.; ; =.k k =.=.=.=.=.=.=.=.=.; =.k.G.!.q.J.W.,.J =.=.=.=.=.=.=.=.; ; =.k ",
"y.. . . . . . . . . y.y.w A <.d U t n L . . . . . . . . . . . . . . . . . . . . . . y.D o v...c.;.+.m 7 o . . . . . . . . . . . ",
"I p p p p p p p p p } / a > o.: ,.O h ] p p p p p p p p p p p p p p p p p p p p p I x ^ ( b H.:  .t #.q * p p p p p p p p p p p ",
"o w.9 9 9 9 9 9 9 w.q x a h k./.Q.4 v.7 L 9 9 9 9 9 9 9 9 9 9 9 9 9 9 9 9 9 9 9 9 9 y.* / 0 G 2.W.c [ Q L 9 9 9 9 9 9 9 9 9 9 9 ",
"v v.5 5 5 5 5 5 5 v.#.b p h k.p.r.k.) P R 5 5 5 5 5 5 5 5 5 5 5 5 5 5 5 5 5 5 5 5 5 g o } E.V 1.%.].4 B R 5 5 5 5 5 5 5 5 5 5 5 ",
"f B u u u u u u u B v . * w k.c.F s.*.F.u u u u u u u u u u u u u u u u u u u u u B R h p E.V d !.G.H.) O u u u u u u u u u u u ",
"f B u u u u u u O u v.o C w k.c.M '.V H O u u u u u u u u u u u u u u u u u u u O u m h p E.V d !.G.H.) O u u u u u u u u u u u ",
"f B u u u u u u u u v.o C w k.c.M '.V F.O u u u u u u u u u u u u u u u u u u u u u R h p E.V p.!.G.H.) O u u u u u u u u u u u ",
"f B u u u u u u u u v.o C w k.c.M '.*.F.O u u u u u u u u u u u u u u u u u u u u u R h p E.V p.!.G.H.) O u u u u u u u u u u u ",
"f B u u u u u u u u v.o C w k.c.M '.*.F.O u u u u u u u u u u u u u u u u u u u u u R h p E.V p.!.G.H.) O u u u u u u u u u u u ",
"B B u u u u u u u u v.o C w k.[.M '.*.F.O u u u u u u u u u u u u u u u u u u u u u m w p E.V d !.G.H.) O u u u u u u u u u u u ",
"A K F.F.F.F.F.F.F.F.  h i Q o.h.M < S T F.F.F.F.F.F.F.F.F.F.F.F.F.F.F.F.F.F.F.F.F.F.f Q E.y.+.c.!.j &.t H F.F.F.F.F.F.F.F.F.F.F.",
"Z 4 *.*.*.*.*.*.V *.l { 8 R X J._.5.=.S V *.*.*.*.*.*.*.*.*.*.*.*.*.*.*.*.*.*.*.V V I.m w 6 k.T.!.y z H.V *.*.*.*.*.*.*.*.*.*.*.",
"o.3 3 3 3 3 3 3 3 3 k ~ O 4 u.8.: U ..'.3 3 3 3 3 3 3 3 3 3 3 3 3 3 3 3 3 3 3 3 3 3 k.V u F.>.8.1.u.,.].3 3 3 3 3 3 3 3 3 3 3 3 ",
"U U U U U U U U <.<.G.k.H.J :.|.(.u. . .<.U U U U U U U U U U U U U U U U U U U <.<.j 3 H.&.3.0.p.3.Q. .<.U U U U U U U U U U U "};
